<?xml version="1.0" encoding="UTF-8" standalone="no"?>
<!DOCTYPE svg PUBLIC "-//W3C//DTD SVG 1.1//EN"
 "http://www.w3.org/Graphics/SVG/1.1/DTD/svg11.dtd">
<!-- Generated by graphviz version 2.38.0 (20140413.2041)
 -->
<!-- Title: %3 Pages: 1 -->
<svg width="429pt" height="188pt"
 viewBox="0.00 0.00 429.00 188.00" xmlns="http://www.w3.org/2000/svg" xmlns:xlink="http://www.w3.org/1999/xlink">
<g id="graph0" class="graph" transform="scale(1 1) rotate(0) translate(4 184)">
<title>%3</title>
<polygon fill="white" stroke="none" points="-4,4 -4,-184 425,-184 425,4 -4,4"/>
<!-- [root] aws_eip.ip -->
<g id="node1" class="node"><title>[root] aws_eip.ip</title>
<polygon fill="none" stroke="black" points="156,-180 81,-180 81,-144 156,-144 156,-180"/>
<text text-anchor="middle" x="118.5" y="-158.3" font-family="Times,serif" font-size="14.00">aws_eip.ip</text>
</g>
<!-- [root] aws_instance.example -->
<g id="node2" class="node"><title>[root] aws_instance.example</title>
<polygon fill="none" stroke="black" points="139,-108 0,-108 0,-72 139,-72 139,-108"/>
<text text-anchor="middle" x="69.5" y="-86.3" font-family="Times,serif" font-size="14.00">aws_instance.example</text>
</g>
<!-- [root] aws_eip.ip&#45;&gt;[root] aws_instance.example -->
<g id="edge1" class="edge"><title>[root] aws_eip.ip&#45;&gt;[root] aws_instance.example</title>
<path fill="none" stroke="black" d="M106.388,-143.697C100.632,-135.474 93.6383,-125.483 87.2945,-116.421"/>
<polygon fill="black" stroke="black" points="90.075,-114.29 81.473,-108.104 84.3404,-118.304 90.075,-114.29"/>
</g>
<!-- [root] provider.aws -->
<g id="node4" class="node"><title>[root] provider.aws</title>
<polygon fill="none" stroke="black" points="167.5,-36 87.5666,-18 167.5,-3.55271e-15 247.433,-18 167.5,-36"/>
<text text-anchor="middle" x="167.5" y="-14.3" font-family="Times,serif" font-size="14.00">provider.aws</text>
</g>
<!-- [root] aws_eip.ip&#45;&gt;[root] provider.aws -->
<g id="edge2" class="edge"><title>[root] aws_eip.ip&#45;&gt;[root] provider.aws</title>
<path fill="none" stroke="black" d="M129.445,-143.921C135.51,-133.811 142.76,-120.561 147.5,-108 155.13,-87.7821 160.308,-63.8315 163.481,-45.8715"/>
<polygon fill="black" stroke="black" points="166.966,-46.2465 165.161,-35.8067 160.062,-45.0941 166.966,-46.2465"/>
</g>
<!-- [root] aws_instance.example&#45;&gt;[root] provider.aws -->
<g id="edge3" class="edge"><title>[root] aws_instance.example&#45;&gt;[root] provider.aws</title>
<path fill="none" stroke="black" d="M93.4735,-71.8761C107.874,-61.5903 126.216,-48.4888 141.039,-37.9007"/>
<polygon fill="black" stroke="black" points="143.201,-40.6578 149.304,-31.9973 139.132,-34.9616 143.201,-40.6578"/>
</g>
<!-- [root] aws_security_group.jenkins_allow_all -->
<g id="node3" class="node"><title>[root] aws_security_group.jenkins_allow_all</title>
<polygon fill="none" stroke="black" points="421,-108 196,-108 196,-72 421,-72 421,-108"/>
<text text-anchor="middle" x="308.5" y="-86.3" font-family="Times,serif" font-size="14.00">aws_security_group.jenkins_allow_all</text>
</g>
<!-- [root] aws_security_group.jenkins_allow_all&#45;&gt;[root] provider.aws -->
<g id="edge4" class="edge"><title>[root] aws_security_group.jenkins_allow_all&#45;&gt;[root] provider.aws</title>
<path fill="none" stroke="black" d="M274.008,-71.8761C251.607,-60.7555 222.578,-46.3436 200.484,-35.3752"/>
<polygon fill="black" stroke="black" points="201.993,-32.2167 191.48,-30.9049 198.88,-38.4866 201.993,-32.2167"/>
</g>
</g>
</svg>
